<svg xmlns="http://www.w3.org/2000/svg" version="1.1" xmlns:xlink="http://www.w3.org/1999/xlink" xmlns:svgjs="http://svgjs.dev/svgjs" width="1000" height="1000" viewBox="0 0 1000 1000"><rect width="1000" height="1000" fill="#ffffff"></rect><g transform="matrix(0.7,0,0,0.7,149.57605563665675,404.6486970377995)"><svg viewBox="0 0 396 108" data-background-color="#ffffff" preserveAspectRatio="xMidYMid meet" height="272" width="1000" xmlns="http://www.w3.org/2000/svg" xmlns:xlink="http://www.w3.org/1999/xlink"><g id="tight-bounds" transform="matrix(1,0,0,1,0.24008861730862918,0.08582310881121202)"><svg viewBox="0 0 395.52 107.8283537823776" height="107.8283537823776" width="395.52"><g><svg viewBox="0 0 395.52 107.8283537823776" height="107.8283537823776" width="395.52"><g><svg viewBox="0 0 395.52 107.8283537823776" height="107.8283537823776" width="395.52"><g id="textblocktransform"><svg viewBox="0 0 395.52 107.8283537823776" height="107.8283537823776" width="395.52" id="textblock"><g><svg viewBox="0 0 395.52 84.70096249370903" height="84.70096249370903" width="395.52"><path d="M394.594 18.167C392.735 9.375 387.435 6.931 387.435 6.931 371.165-2.125 350.86-0.173 332.619 1.128 300.414 1.181 268.339 3.115 236.208 4.152 168.767 4.311 100.749 1.708 33.643 8.126 27.339 10.096-6.54 8.513 1.121 19.292 3.129 23.776 10.456 28.752 10.232 32.867 11.236 33.588 12.631 31.935 13.226 32.972 15.309 35.768 18.711 34.449 21.501 36.102 17.614 40.516 20.403 44.191 23.062 48.042 18.377 49.044 12.371 48.569 9.675 51.893 9.396 54.302 7.89 53.844 6.235 53.739 5.026 53.669 2.59 53.932 2.999 54.688 4.394 57.273-1.594 58.768 2.162 61.3-0.422 64.043 3.948 66.417 3.353 69.389 3.278 69.986 3.687 70.496 4.338 70.637 7.22 71.393 3.018 72.87 3.464 74.47 33.029 85.407 65.104 77.846 95.394 82.875 103.259 79.359 97.346 84.124 100.489 83.385 102.943 82.524 104.728 86.093 107.499 84.071 107.927 83.491 107.276 82.119 108.8 82.383 109.6 82.524 110.307 82.488 110.418 81.68 110.586 80.466 109.117 81.222 108.726 80.589 112.947 77.389 111.906 85.003 115.866 84.686 115.68 83.755 114.528 82.418 116.889 82.594 119.232 81.258 119.306 80.15 121.389 83.157 121.463 83.807 121.835 84.264 122.43 84.581 128.938 81.31 135.409 85.742 142.233 84.264 146.417 82.647 150.433 85.144 154.672 84.528 156.16 84.036 157.666 83.157 159.098 84.634 176.632 84.95 195.319 83.631 211.943 84.686 256.364 82.717 303.835 85.495 350.674 82.893 361.719 81.891 373.192 80.466 383.958 79.323 383.958 79.323 392.679 76.193 392.679 62.126S394.538 49.818 394.817 38.617C395.096 27.416 396.398 26.959 394.538 18.167Z" opacity="1" fill="#ee3e38" data-fill-palette-color="tertiary"></path><g transform="matrix(1,0,0,1,55.76832,26.068561146666667)"><svg width="283.98335999999995" viewBox="4.440000057220459 -35.77000045776367 311.8999938964844 35.77000045776367" height="32.5638402003757" data-palette-color="#ffffff"><path d="M27.08 0L4.44 0 4.44-35.77 27.78-35.77 26.83-30.44 13.06-30.44 13.06-20.95 25.07-20.95 24.19-15.99 13.06-15.99 13.06-5.32 28.03-5.32 27.08 0ZM40.06 0L32.13 0 45.21-17.8 33.01-35.77 43.04-35.77 47.6-28.34 50.1-23.83 50.58-23.83 53.22-28.42 57.91-35.77 65.87-35.77 53.44-18.99 66.4 0 56.39 0 51.05-8.59 48.68-12.82 48.19-12.82 45.68-8.57 40.06 0ZM92.79 0L90.45-8.28 78.29-8.28 75.97 0 68.77 0 80.15-35.77 90.55-35.77 101.9 0 92.79 0ZM79.61-13.23L89.11-13.23 85.81-25 84.59-30.37 84.1-30.37 82.91-25 79.61-13.23ZM114.03 0L106.73 0 109.56-35.77 121.75-35.77 127.07-17.19 128.46-10.55 128.95-10.55 130.46-17.19 135.76-35.77 148.72-35.77 151.56 0 142.25 0 141.08-24.07 141.03-30.52 140.45-30.52 138.93-24.27 132.1-0.71 124.21-0.71 117.33-24.22 115.76-30.52 115.2-30.52 115.15-24.12 114.03 0ZM187.98-33.13L197.18-33.13 202.11-11.77 203.09-6.57 203.58-6.57 204.48-11.77 209.63-35.77 216.74-35.77 207.82 0 197.47 0 193.05-18.7 191.98-24.63 191.49-24.63 190.44-18.7 186.02 0 175.5 0 166.54-35.77 175.52-35.77 180.72-11.77 181.6-6.57 182.09-6.57 183.07-11.77 187.98-33.13ZM242.05 0L239.71-8.28 227.55-8.28 225.23 0 218.03 0 229.4-35.77 239.8-35.77 251.16 0 242.05 0ZM228.87-13.23L238.36-13.23 235.07-25 233.85-30.37 233.36-30.37 232.16-25 228.87-13.23ZM277.89 0L256.82 0 256.82-35.77 265.44-35.77 265.44-5.32 278.84-5.32 277.89 0ZM307.23 0L304.89-8.28 292.73-8.28 290.41 0 283.21 0 294.58-35.77 304.98-35.77 316.34 0 307.23 0ZM294.05-13.23L303.54-13.23 300.25-25 299.03-30.37 298.54-30.37 297.34-25 294.05-13.23Z" opacity="1" transform="matrix(1,0,0,1,0,0)" fill="#ffffff" class="wordmark-text-0" data-fill-palette-color="quaternary" id="text-0"></path></svg></g></svg></g><g transform="matrix(1,0,0,1,75.54432000000001,92.38850363285292)"><svg viewBox="0 0 244.43135999999996 15.439850149524686" height="15.439850149524686" width="244.43135999999996"><g transform="matrix(1,0,0,1,0,0)"><svg width="244.43135999999996" viewBox="1.9500000476837158 -37 762.719970703125 48.18571472167969" height="15.439850149524686" data-palette-color="#8d021f"><path d="M15 0.5L15 0.5Q12.2 0.5 9.8-0.58 7.4-1.65 5.65-3.53 3.9-5.4 2.93-7.85 1.95-10.3 1.95-13.1L1.95-13.1Q1.95-16.75 3.63-19.8 5.3-22.85 8.25-24.68 11.2-26.5 14.95-26.5L14.95-26.5Q18.8-26.5 21.68-24.65 24.55-22.8 26.2-19.78 27.85-16.75 27.85-13.15L27.85-13.15Q27.85-12.75 27.85-12.38 27.85-12 27.8-11.8L27.8-11.8 5.5-11.8Q5.75-9 7.08-6.83 8.4-4.65 10.53-3.38 12.65-2.1 15.15-2.1L15.15-2.1Q17.7-2.1 19.98-3.4 22.25-4.7 23.15-6.8L23.15-6.8 26.1-6Q25.3-4.15 23.65-2.65 22-1.15 19.78-0.33 17.55 0.5 15 0.5ZM5.4-14.25L5.4-14.25 24.65-14.25Q24.45-17.1 23.13-19.25 21.8-21.4 19.68-22.63 17.55-23.85 15-23.85L15-23.85Q12.45-23.85 10.35-22.63 8.25-21.4 6.93-19.23 5.6-17.05 5.4-14.25ZM29.1-26.05L32.9-26.05 40.55-15.85 40.95-15.1 41.35-15.85 48.95-26.05 52.8-26.05 42.9-12.95 52.8 0 48.95 0 41.35-10.15 40.95-10.85 40.55-10.15 32.95 0 29.1 0 38.95-12.95 29.1-26.05ZM54.95-7.5L54.95-7.5Q54.95-9.95 56.34-11.73 57.75-13.5 60.22-14.48 62.7-15.45 65.95-15.45L65.95-15.45Q67.84-15.45 69.9-15.15 71.95-14.85 73.55-14.25L73.55-14.25 73.55-16.45Q73.55-19.75 71.59-21.7 69.65-23.65 66.2-23.65L66.2-23.65Q64.09-23.65 62.07-22.88 60.05-22.1 57.84-20.6L57.84-20.6 56.55-23Q59.09-24.75 61.55-25.63 64-26.5 66.55-26.5L66.55-26.5Q71.34-26.5 74.15-23.75 76.95-21 76.95-16.15L76.95-16.15 76.95-4.1Q76.95-3.4 77.25-3.08 77.55-2.75 78.2-2.7L78.2-2.7 78.2 0Q77.65 0.05 77.25 0.1 76.84 0.15 76.65 0.1L76.65 0.1Q75.4 0.05 74.75-0.7 74.09-1.45 74.05-2.3L74.05-2.3 74-4.2Q72.25-1.95 69.45-0.73 66.65 0.5 63.75 0.5L63.75 0.5Q61.25 0.5 59.22-0.58 57.2-1.65 56.07-3.48 54.95-5.3 54.95-7.5ZM72.4-5.5L72.4-5.5Q72.95-6.2 73.25-6.85 73.55-7.5 73.55-8L73.55-8 73.55-11.8Q71.84-12.45 70.02-12.8 68.2-13.15 66.34-13.15L66.34-13.15Q62.7-13.15 60.45-11.7 58.2-10.25 58.2-7.75L58.2-7.75Q58.2-6.3 58.95-5.03 59.7-3.75 61.15-2.93 62.59-2.1 64.55-2.1L64.55-2.1Q67-2.1 69.12-3.05 71.25-4 72.4-5.5ZM123.04-15.25L123.04 0 119.64 0 119.64-14.55Q119.64-19.1 118.19-21.25 116.74-23.4 113.89-23.4L113.89-23.4Q110.94-23.4 108.62-21.3 106.29-19.2 105.34-15.9L105.34-15.9 105.34 0 101.94 0 101.94-14.55Q101.94-19.15 100.54-21.28 99.14-23.4 96.24-23.4L96.24-23.4Q93.34-23.4 90.99-21.35 88.64-19.3 87.69-15.95L87.69-15.95 87.69 0 84.29 0 84.29-26.05 87.39-26.05 87.39-20.15Q89.04-23.2 91.62-24.85 94.19-26.5 97.34-26.5L97.34-26.5Q100.59-26.5 102.59-24.65 104.59-22.8 105.04-19.8L105.04-19.8Q106.84-23.1 109.37-24.8 111.89-26.5 115.09-26.5L115.09-26.5Q117.29-26.5 118.82-25.7 120.34-24.9 121.27-23.43 122.19-21.95 122.62-19.88 123.04-17.8 123.04-15.25L123.04-15.25ZM138.79 0.5L138.79 0.5Q135.59 0.5 132.84-0.55 130.09-1.6 128.09-3.75L128.09-3.75 129.49-6.15Q131.69-4.1 133.92-3.18 136.14-2.25 138.64-2.25L138.64-2.25Q141.69-2.25 143.59-3.48 145.49-4.7 145.49-7L145.49-7Q145.49-8.55 144.56-9.38 143.64-10.2 141.92-10.73 140.19-11.25 137.79-11.85L137.79-11.85Q135.09-12.6 133.27-13.43 131.44-14.25 130.52-15.53 129.59-16.8 129.59-18.85L129.59-18.85Q129.59-21.4 130.87-23.08 132.14-24.75 134.37-25.63 136.59-26.5 139.34-26.5L139.34-26.5Q142.34-26.5 144.64-25.55 146.94-24.6 148.39-22.9L148.39-22.9 146.74-20.6Q145.34-22.2 143.42-22.98 141.49-23.75 139.14-23.75L139.14-23.75Q137.54-23.75 136.09-23.33 134.64-22.9 133.72-21.93 132.79-20.95 132.79-19.25L132.79-19.25Q132.79-17.85 133.49-17.07 134.19-16.3 135.59-15.78 136.99-15.25 139.04-14.65L139.04-14.65Q141.99-13.85 144.19-13.03 146.39-12.2 147.59-10.9 148.79-9.6 148.79-7.25L148.79-7.25Q148.79-3.6 146.04-1.55 143.29 0.5 138.79 0.5ZM205.89-15.25L205.89 0 202.49 0 202.49-14.55Q202.49-19.1 201.04-21.25 199.59-23.4 196.74-23.4L196.74-23.4Q193.79-23.4 191.46-21.3 189.14-19.2 188.19-15.9L188.19-15.9 188.19 0 184.79 0 184.79-14.55Q184.79-19.15 183.39-21.28 181.99-23.4 179.09-23.4L179.09-23.4Q176.19-23.4 173.84-21.35 171.49-19.3 170.54-15.95L170.54-15.95 170.54 0 167.14 0 167.14-26.05 170.24-26.05 170.24-20.15Q171.89-23.2 174.46-24.85 177.04-26.5 180.19-26.5L180.19-26.5Q183.44-26.5 185.44-24.65 187.44-22.8 187.89-19.8L187.89-19.8Q189.69-23.1 192.21-24.8 194.74-26.5 197.94-26.5L197.94-26.5Q200.14-26.5 201.66-25.7 203.19-24.9 204.11-23.43 205.04-21.95 205.46-19.88 205.89-17.8 205.89-15.25L205.89-15.25ZM210.98-7.5L210.98-7.5Q210.98-9.95 212.38-11.73 213.78-13.5 216.26-14.48 218.73-15.45 221.98-15.45L221.98-15.45Q223.88-15.45 225.93-15.15 227.98-14.85 229.58-14.25L229.58-14.25 229.58-16.45Q229.58-19.75 227.63-21.7 225.68-23.65 222.23-23.65L222.23-23.65Q220.13-23.65 218.11-22.88 216.08-22.1 213.88-20.6L213.88-20.6 212.58-23Q215.13-24.75 217.58-25.63 220.03-26.5 222.58-26.5L222.58-26.5Q227.38-26.5 230.18-23.75 232.98-21 232.98-16.15L232.98-16.15 232.98-4.1Q232.98-3.4 233.28-3.08 233.58-2.75 234.23-2.7L234.23-2.7 234.23 0Q233.68 0.05 233.28 0.1 232.88 0.15 232.68 0.1L232.68 0.1Q231.43 0.05 230.78-0.7 230.13-1.45 230.08-2.3L230.08-2.3 230.03-4.2Q228.28-1.95 225.48-0.73 222.68 0.5 219.78 0.5L219.78 0.5Q217.28 0.5 215.26-0.58 213.23-1.65 212.11-3.48 210.98-5.3 210.98-7.5ZM228.43-5.5L228.43-5.5Q228.98-6.2 229.28-6.85 229.58-7.5 229.58-8L229.58-8 229.58-11.8Q227.88-12.45 226.06-12.8 224.23-13.15 222.38-13.15L222.38-13.15Q218.73-13.15 216.48-11.7 214.23-10.25 214.23-7.75L214.23-7.75Q214.23-6.3 214.98-5.03 215.73-3.75 217.18-2.93 218.63-2.1 220.58-2.1L220.58-2.1Q223.03-2.1 225.16-3.05 227.28-4 228.43-5.5ZM238.58-12.95L238.58-12.95Q238.58-16.65 240.11-19.73 241.63-22.8 244.33-24.65 247.03-26.5 250.48-26.5L250.48-26.5Q253.73-26.5 256.31-24.78 258.88-23.05 260.33-20.6L260.33-20.6 260.33-36.5 263.73-36.5 263.73-4.1Q263.73-3.4 264.03-3.08 264.33-2.75 264.93-2.7L264.93-2.7 264.93 0Q263.93 0.15 263.38 0.1L263.38 0.1Q262.33 0.05 261.53-0.75 260.73-1.55 260.73-2.5L260.73-2.5 260.73-5.05Q259.18-2.5 256.53-1 253.88 0.5 251.03 0.5L251.03 0.5Q248.33 0.5 246.06-0.6 243.78-1.7 242.11-3.6 240.43-5.5 239.51-7.93 238.58-10.35 238.58-12.95ZM260.33-8.95L260.33-8.95 260.33-17Q259.68-18.8 258.23-20.28 256.78-21.75 254.96-22.63 253.13-23.5 251.33-23.5L251.33-23.5Q249.23-23.5 247.53-22.63 245.83-21.75 244.61-20.25 243.38-18.75 242.73-16.85 242.08-14.95 242.08-12.95L242.08-12.95Q242.08-10.85 242.81-8.95 243.53-7.05 244.88-5.58 246.23-4.1 247.98-3.3 249.73-2.5 251.78-2.5L251.78-2.5Q253.08-2.5 254.48-3 255.88-3.5 257.16-4.38 258.43-5.25 259.28-6.45 260.13-7.65 260.33-8.95ZM282.68 0.5L282.68 0.5Q279.88 0.5 277.48-0.58 275.08-1.65 273.33-3.53 271.58-5.4 270.6-7.85 269.63-10.3 269.63-13.1L269.63-13.1Q269.63-16.75 271.3-19.8 272.98-22.85 275.93-24.68 278.88-26.5 282.63-26.5L282.63-26.5Q286.48-26.5 289.35-24.65 292.23-22.8 293.88-19.78 295.53-16.75 295.53-13.15L295.53-13.15Q295.53-12.75 295.53-12.38 295.53-12 295.48-11.8L295.48-11.8 273.18-11.8Q273.43-9 274.75-6.83 276.08-4.65 278.2-3.38 280.33-2.1 282.83-2.1L282.83-2.1Q285.38-2.1 287.65-3.4 289.93-4.7 290.83-6.8L290.83-6.8 293.78-6Q292.98-4.15 291.33-2.65 289.68-1.15 287.45-0.33 285.23 0.5 282.68 0.5ZM273.08-14.25L273.08-14.25 292.33-14.25Q292.13-17.1 290.8-19.25 289.48-21.4 287.35-22.63 285.23-23.85 282.68-23.85L282.68-23.85Q280.13-23.85 278.03-22.63 275.93-21.4 274.6-19.23 273.28-17.05 273.08-14.25ZM324.77 0.5L324.77 0.5Q321.97 0.5 319.57-0.58 317.17-1.65 315.42-3.53 313.67-5.4 312.7-7.85 311.72-10.3 311.72-13.1L311.72-13.1Q311.72-16.75 313.4-19.8 315.07-22.85 318.02-24.68 320.97-26.5 324.72-26.5L324.72-26.5Q328.57-26.5 331.45-24.65 334.32-22.8 335.97-19.78 337.62-16.75 337.62-13.15L337.62-13.15Q337.62-12.75 337.62-12.38 337.62-12 337.57-11.8L337.57-11.8 315.27-11.8Q315.52-9 316.85-6.83 318.17-4.65 320.3-3.38 322.42-2.1 324.92-2.1L324.92-2.1Q327.47-2.1 329.75-3.4 332.02-4.7 332.92-6.8L332.92-6.8 335.87-6Q335.07-4.15 333.42-2.65 331.77-1.15 329.55-0.33 327.32 0.5 324.77 0.5ZM315.17-14.25L315.17-14.25 334.42-14.25Q334.22-17.1 332.9-19.25 331.57-21.4 329.45-22.63 327.32-23.85 324.77-23.85L324.77-23.85Q322.22-23.85 320.12-22.63 318.02-21.4 316.7-19.23 315.37-17.05 315.17-14.25ZM340.77-7.5L340.77-7.5Q340.77-9.95 342.17-11.73 343.57-13.5 346.05-14.48 348.52-15.45 351.77-15.45L351.77-15.45Q353.67-15.45 355.72-15.15 357.77-14.85 359.37-14.25L359.37-14.25 359.37-16.45Q359.37-19.75 357.42-21.7 355.47-23.65 352.02-23.65L352.02-23.65Q349.92-23.65 347.9-22.88 345.87-22.1 343.67-20.6L343.67-20.6 342.37-23Q344.92-24.75 347.37-25.63 349.82-26.5 352.37-26.5L352.37-26.5Q357.17-26.5 359.97-23.75 362.77-21 362.77-16.15L362.77-16.15 362.77-4.1Q362.77-3.4 363.07-3.08 363.37-2.75 364.02-2.7L364.02-2.7 364.02 0Q363.47 0.05 363.07 0.1 362.67 0.15 362.47 0.1L362.47 0.1Q361.22 0.05 360.57-0.7 359.92-1.45 359.87-2.3L359.87-2.3 359.82-4.2Q358.07-1.95 355.27-0.73 352.47 0.5 349.57 0.5L349.57 0.5Q347.07 0.5 345.05-0.58 343.02-1.65 341.9-3.48 340.77-5.3 340.77-7.5ZM358.22-5.5L358.22-5.5Q358.77-6.2 359.07-6.85 359.37-7.5 359.37-8L359.37-8 359.37-11.8Q357.67-12.45 355.85-12.8 354.02-13.15 352.17-13.15L352.17-13.15Q348.52-13.15 346.27-11.7 344.02-10.25 344.02-7.75L344.02-7.75Q344.02-6.3 344.77-5.03 345.52-3.75 346.97-2.93 348.42-2.1 350.37-2.1L350.37-2.1Q352.82-2.1 354.95-3.05 357.07-4 358.22-5.5ZM378.67 0.5L378.67 0.5Q375.47 0.5 372.72-0.55 369.97-1.6 367.97-3.75L367.97-3.75 369.37-6.15Q371.57-4.1 373.79-3.18 376.02-2.25 378.52-2.25L378.52-2.25Q381.57-2.25 383.47-3.48 385.37-4.7 385.37-7L385.37-7Q385.37-8.55 384.44-9.38 383.52-10.2 381.79-10.73 380.07-11.25 377.67-11.85L377.67-11.85Q374.97-12.6 373.14-13.43 371.32-14.25 370.39-15.53 369.47-16.8 369.47-18.85L369.47-18.85Q369.47-21.4 370.74-23.08 372.02-24.75 374.24-25.63 376.47-26.5 379.22-26.5L379.22-26.5Q382.22-26.5 384.52-25.55 386.82-24.6 388.27-22.9L388.27-22.9 386.62-20.6Q385.22-22.2 383.29-22.98 381.37-23.75 379.02-23.75L379.02-23.75Q377.42-23.75 375.97-23.33 374.52-22.9 373.59-21.93 372.67-20.95 372.67-19.25L372.67-19.25Q372.67-17.85 373.37-17.07 374.07-16.3 375.47-15.78 376.87-15.25 378.92-14.65L378.92-14.65Q381.87-13.85 384.07-13.03 386.27-12.2 387.47-10.9 388.67-9.6 388.67-7.25L388.67-7.25Q388.67-3.6 385.92-1.55 383.17 0.5 378.67 0.5ZM395.22 11.05L395.22 8Q395.92 8.05 396.57 8.08 397.22 8.1 397.52 8L397.52 8Q398.12 7.9 398.67 7.3 399.22 6.7 399.97 5 400.72 3.3 402.07 0L402.07 0 390.72-26.05 394.32-26.05 403.87-3.5 412.67-26.05 416.07-26.05 402.57 7.55Q402.22 8.5 401.52 9.33 400.82 10.15 399.79 10.63 398.77 11.1 397.27 11.15L397.27 11.15Q396.82 11.2 396.34 11.18 395.87 11.15 395.22 11.05L395.22 11.05ZM436.86 0L433.46 0 433.46-23.35 429.86-23.35 429.86-26.05 433.46-26.05 433.46-26.75Q433.46-29.95 434.39-32.25 435.31-34.55 437.04-35.77 438.76-37 441.11-37L441.11-37Q442.66-37 444.11-36.55 445.56-36.1 446.61-35.35L446.61-35.35 445.56-32.9Q444.91-33.45 443.86-33.75 442.81-34.05 441.76-34.05L441.76-34.05Q439.41-34.05 438.14-32.2 436.86-30.35 436.86-26.85L436.86-26.85 436.86-26.05 444.06-26.05 444.06-23.35 436.86-23.35 436.86 0ZM459.01 0.5L459.01 0.5Q456.21 0.5 453.83-0.58 451.46-1.65 449.73-3.53 448.01-5.4 447.06-7.83 446.11-10.25 446.11-12.95L446.11-12.95Q446.11-15.75 447.06-18.18 448.01-20.6 449.76-22.48 451.51-24.35 453.88-25.43 456.26-26.5 459.06-26.5L459.06-26.5Q461.86-26.5 464.21-25.43 466.56-24.35 468.31-22.48 470.06-20.6 471.01-18.18 471.96-15.75 471.96-12.95L471.96-12.95Q471.96-10.25 471.01-7.83 470.06-5.4 468.33-3.53 466.61-1.65 464.23-0.58 461.86 0.5 459.01 0.5ZM449.56-12.9L449.56-12.9Q449.56-10 450.83-7.63 452.11-5.25 454.26-3.88 456.41-2.5 459.01-2.5L459.01-2.5Q461.61-2.5 463.76-3.9 465.91-5.3 467.21-7.73 468.51-10.15 468.51-13L468.51-13Q468.51-15.9 467.21-18.3 465.91-20.7 463.76-22.1 461.61-23.5 459.01-23.5L459.01-23.5Q456.41-23.5 454.28-22.05 452.16-20.6 450.86-18.23 449.56-15.85 449.56-12.9ZM490.66-26.15L490.66-23.05Q487.26-22.95 484.68-21.15 482.11-19.35 481.06-16.2L481.06-16.2 481.06 0 477.66 0 477.66-26.05 480.86-26.05 480.86-19.8Q482.21-22.55 484.43-24.25 486.66-25.95 489.16-26.15L489.16-26.15Q489.66-26.2 490.03-26.2 490.41-26.2 490.66-26.15L490.66-26.15ZM518.05 0.5L518.05 0.5Q515.25 0.5 512.85-0.58 510.45-1.65 508.7-3.53 506.95-5.4 505.98-7.85 505-10.3 505-13.1L505-13.1Q505-16.75 506.68-19.8 508.35-22.85 511.3-24.68 514.25-26.5 518-26.5L518-26.5Q521.85-26.5 524.73-24.65 527.6-22.8 529.25-19.78 530.9-16.75 530.9-13.15L530.9-13.15Q530.9-12.75 530.9-12.38 530.9-12 530.85-11.8L530.85-11.8 508.55-11.8Q508.8-9 510.13-6.83 511.45-4.65 513.58-3.38 515.7-2.1 518.2-2.1L518.2-2.1Q520.75-2.1 523.03-3.4 525.3-4.7 526.2-6.8L526.2-6.8 529.15-6Q528.35-4.15 526.7-2.65 525.05-1.15 522.83-0.33 520.6 0.5 518.05 0.5ZM508.45-14.25L508.45-14.25 527.7-14.25Q527.5-17.1 526.18-19.25 524.85-21.4 522.73-22.63 520.6-23.85 518.05-23.85L518.05-23.85Q515.5-23.85 513.4-22.63 511.3-21.4 509.98-19.23 508.65-17.05 508.45-14.25ZM546.85 0L543.2 0 532.65-26.05 536.2-26.05 545.1-3.4 554.05-26.05 557.4-26.05 546.85 0ZM572.44 0.5L572.44 0.5Q569.64 0.5 567.24-0.58 564.84-1.65 563.09-3.53 561.34-5.4 560.37-7.85 559.39-10.3 559.39-13.1L559.39-13.1Q559.39-16.75 561.07-19.8 562.74-22.85 565.69-24.68 568.64-26.5 572.39-26.5L572.39-26.5Q576.24-26.5 579.12-24.65 581.99-22.8 583.64-19.78 585.29-16.75 585.29-13.15L585.29-13.15Q585.29-12.75 585.29-12.38 585.29-12 585.24-11.8L585.24-11.8 562.94-11.8Q563.19-9 564.52-6.83 565.84-4.65 567.97-3.38 570.09-2.1 572.59-2.1L572.59-2.1Q575.14-2.1 577.42-3.4 579.69-4.7 580.59-6.8L580.59-6.8 583.54-6Q582.74-4.15 581.09-2.65 579.44-1.15 577.22-0.33 574.99 0.5 572.44 0.5ZM562.84-14.25L562.84-14.25 582.09-14.25Q581.89-17.1 580.57-19.25 579.24-21.4 577.12-22.63 574.99-23.85 572.44-23.85L572.44-23.85Q569.89-23.85 567.79-22.63 565.69-21.4 564.37-19.23 563.04-17.05 562.84-14.25ZM603.54-26.15L603.54-23.05Q600.14-22.95 597.57-21.15 594.99-19.35 593.94-16.2L593.94-16.2 593.94 0 590.54 0 590.54-26.05 593.74-26.05 593.74-19.8Q595.09-22.55 597.32-24.25 599.54-25.95 602.04-26.15L602.04-26.15Q602.54-26.2 602.92-26.2 603.29-26.2 603.54-26.15L603.54-26.15ZM609.59 11.05L609.59 8Q610.29 8.05 610.94 8.08 611.59 8.1 611.89 8L611.89 8Q612.49 7.9 613.04 7.3 613.59 6.7 614.34 5 615.09 3.3 616.44 0L616.44 0 605.09-26.05 608.69-26.05 618.24-3.5 627.04-26.05 630.44-26.05 616.94 7.55Q616.59 8.5 615.89 9.33 615.19 10.15 614.16 10.63 613.14 11.1 611.64 11.15L611.64 11.15Q611.19 11.2 610.71 11.18 610.24 11.15 609.59 11.05L609.59 11.05ZM645.34 0.5L645.34 0.5Q642.54 0.5 640.16-0.58 637.79-1.65 636.06-3.53 634.34-5.4 633.39-7.83 632.44-10.25 632.44-12.95L632.44-12.95Q632.44-15.75 633.39-18.18 634.34-20.6 636.09-22.48 637.84-24.35 640.21-25.43 642.59-26.5 645.39-26.5L645.39-26.5Q648.19-26.5 650.54-25.43 652.89-24.35 654.64-22.48 656.39-20.6 657.34-18.18 658.29-15.75 658.29-12.95L658.29-12.95Q658.29-10.25 657.34-7.83 656.39-5.4 654.66-3.53 652.94-1.65 650.56-0.58 648.19 0.5 645.34 0.5ZM635.89-12.9L635.89-12.9Q635.89-10 637.16-7.63 638.44-5.25 640.59-3.88 642.74-2.5 645.34-2.5L645.34-2.5Q647.94-2.5 650.09-3.9 652.24-5.3 653.54-7.73 654.84-10.15 654.84-13L654.84-13Q654.84-15.9 653.54-18.3 652.24-20.7 650.09-22.1 647.94-23.5 645.34-23.5L645.34-23.5Q642.74-23.5 640.61-22.05 638.49-20.6 637.19-18.23 635.89-15.85 635.89-12.9ZM685.88-15.25L685.88 0 682.48 0 682.48-14.55Q682.48-19.15 681.13-21.28 679.78-23.4 676.88-23.4L676.88-23.4Q674.88-23.4 672.93-22.43 670.98-21.45 669.51-19.78 668.03-18.1 667.38-15.95L667.38-15.95 667.38 0 663.98 0 663.98-26.05 667.08-26.05 667.08-20.15Q668.13-22.05 669.83-23.48 671.53-24.9 673.68-25.7 675.83-26.5 678.13-26.5L678.13-26.5Q680.28-26.5 681.78-25.7 683.28-24.9 684.18-23.43 685.08-21.95 685.48-19.88 685.88-17.8 685.88-15.25L685.88-15.25ZM704.38 0.5L704.38 0.5Q701.58 0.5 699.18-0.58 696.78-1.65 695.03-3.53 693.28-5.4 692.31-7.85 691.33-10.3 691.33-13.1L691.33-13.1Q691.33-16.75 693.01-19.8 694.68-22.85 697.63-24.68 700.58-26.5 704.33-26.5L704.33-26.5Q708.18-26.5 711.06-24.65 713.93-22.8 715.58-19.78 717.23-16.75 717.23-13.15L717.23-13.15Q717.23-12.75 717.23-12.38 717.23-12 717.18-11.8L717.18-11.8 694.88-11.8Q695.13-9 696.46-6.83 697.78-4.65 699.91-3.38 702.03-2.1 704.53-2.1L704.53-2.1Q707.08-2.1 709.36-3.4 711.63-4.7 712.53-6.8L712.53-6.8 715.48-6Q714.68-4.15 713.03-2.65 711.38-1.15 709.16-0.33 706.93 0.5 704.38 0.5ZM694.78-14.25L694.78-14.25 714.03-14.25Q713.83-17.1 712.51-19.25 711.18-21.4 709.06-22.63 706.93-23.85 704.38-23.85L704.38-23.85Q701.83-23.85 699.73-22.63 697.63-21.4 696.31-19.23 694.98-17.05 694.78-14.25ZM739.48-11.4L736.08-11.4 736.08-35.85 739.48-35.85 739.48-11.4ZM739.48 0L736.08 0 736.08-5.6 739.48-5.6 739.48 0ZM752.07-11.4L748.67-11.4 748.67-35.85 752.07-35.85 752.07-11.4ZM752.07 0L748.67 0 748.67-5.6 752.07-5.6 752.07 0ZM764.67-11.4L761.27-11.4 761.27-35.85 764.67-35.85 764.67-11.4ZM764.67 0L761.27 0 761.27-5.6 764.67-5.6 764.67 0Z" opacity="1" transform="matrix(1,0,0,1,0,0)" fill="#8d021f" class="slogan-text-1" data-fill-palette-color="secondary" id="text-1"></path></svg></g></svg></g></svg></g></svg></g><g></g></svg></g><defs></defs></svg><rect width="395.52" height="107.8283537823776" fill="none" stroke="none" visibility="hidden"></rect></g></svg></g></svg>